<?xml version="1.0" encoding="utf-8"?>
<svg x="0px" y="0px" width="250px" height="250px" viewBox="0 0 250 250" xmlns="http://www.w3.org/2000/svg" xmlns:xlink="http://www.w3.org/1999/xlink">
  <!--Generated by AMDN-->
  <g id="Scale A Icon">
    <path id="lower box" style="fill:#ff0000;fill-opacity:1;fill-rule:evenodd;opacity:1;stroke:none;" d="M6.25001,129.4 C6.25001,120.066,13.8164,112.5,23.15,112.5 C23.15,112.5,72.87,112.5,72.87,112.5 C74.0464,112.5,75,113.454,75,114.63 C75,114.63,75,174.8,75,174.8 C75,181.814,80.686,187.5,87.7,187.5 C87.7,187.5,140.62,187.498,140.62,187.498 C141.796,187.498,142.75,188.451,142.75,189.628 C142.75,189.628,142.572,242.824,142.572,242.824 C142.559,246.791,139.339,250,135.372,250 C135.372,250,23.15,250,23.15,250 C13.8164,250,6.25001,242.434,6.25001,233.1 C6.25001,233.1,6.25001,129.4,6.25001,129.4 z"/>
    <path id="upper box" style="fill:#ff0000;fill-opacity:1;fill-rule:evenodd;opacity:1;stroke:none;" d="M81.25,21.3 C81.25,9.53634,90.7863,0,102.55,0 C102.55,0,222.45,0,222.45,0 C234.214,0,243.75,9.53633,243.75,21.3 C243.75,21.3,243.75,164.05,243.75,164.05 C243.75,173.549,236.049,181.25,226.55,181.25 C226.55,181.25,81.3177,181.25,81.3177,181.25 C81.2803,181.25,81.25,181.22,81.25,181.182 C81.25,181.182,81.25,21.3,81.25,21.3 z M114.13,114.363 C112.427,114.451,110.816,115.168,109.609,116.374 C109.609,116.374,103.296,122.687,103.296,122.687 C102.706,123.277,103.143,124.283,103.975,124.258 C103.977,124.257,103.98,124.258,103.983,124.258 C103.983,124.258,122.782,125.934,122.782,125.934 C124.583,126.095,125.378,128.284,124.099,129.562 C124.099,129.562,93.9491,159.632,87.5138,166.067 C83.1792,170.402,81.2384,168.75,81.2384,166.067 C81.2384,162.329,81.2496,180.68,81.25,181.237 C81.25,181.257,81.2971,181.25,81.3175,181.25 C82.5504,181.252,100.207,181.277,96.4948,181.277 C93.7499,181.277,92.1413,179.201,96.4948,174.847 C104.205,167.137,132.938,138.401,132.938,138.401 C134.216,137.122,136.405,137.917,136.566,139.718 C136.566,139.718,138.242,158.517,138.242,158.517 C138.242,158.52,138.242,158.523,138.242,158.525 C138.217,159.357,139.223,159.794,139.813,159.204 C139.813,159.204,146.126,152.891,146.126,152.891 C147.332,151.684,148.049,150.073,148.137,148.369 C148.137,148.369,147.877,115.86,147.877,115.86 C147.943,114.598,146.902,113.557,145.64,113.623 C145.64,113.623,114.13,114.363,114.13,114.363 z"/>
  </g>
</svg>
