<?xml version="1.0" encoding="utf-8"?>
<svg x="0px" y="0px" width="250px" height="250px" viewBox="0 0 250 250" xmlns="http://www.w3.org/2000/svg" xmlns:xlink="http://www.w3.org/1999/xlink">
  <!--Generated by AMDN-->
  <g id="Save Icon">
    <path id="heart" style="fill:#ff0000;fill-opacity:1;fill-rule:evenodd;opacity:1;stroke:none;" d="M157.397,197.041 C158.898,197.57,159.31,199.5,158.156,200.596 C147.868,210.365,138.015,218.91,129.99,224.774 C126.228,227.524,117.456,231.92,112.912,231.468 C110.325,231.21,106.785,228.162,104.945,224.718 C86.6366,190.469,42.7827,159.941,19.4044,136.709 C7.13449,124.516,5.44706e-25,107.241,5.44706e-25,88.2094 C5.44706e-25,49.7127,30.0635,18.5,67.1429,18.5 C86.3735,18.5,105.809,26.2916,116.056,40.4197 C116.83,41.4873,118.375,41.6059,119.296,40.6625 C132.584,27.0556,148.558,18.5,167.857,18.5 C204.937,18.5,235,49.7127,235,88.2094 C235,105.361,227.386,119.532,218.448,132.554 C217.268,134.273,214.581,133.447,214.568,131.362 C214.519,123.229,214.571,110.35,214.571,110.35 C214.571,106.041,211.108,102.548,206.837,102.548 C206.837,102.548,188.577,102.548,188.577,102.548 C188.577,102.548,170.316,102.548,170.316,102.548 C166.045,102.548,162.582,106.041,162.582,110.35 C162.582,110.35,162.582,136.366,162.582,136.366 C162.582,140.675,159.119,144.167,154.848,144.167 C154.848,144.167,129.055,144.167,129.055,144.167 C124.784,144.167,121.321,147.66,121.321,151.969 C121.321,151.969,121.321,170.387,121.321,170.387 C121.321,170.387,121.321,188.806,121.321,188.806 C121.321,193.115,124.784,196.608,129.055,196.608 C129.055,196.608,154.848,196.608,154.848,196.608 C155.741,196.608,156.599,196.76,157.397,197.041 z"/>
    <path id="plus sign" style="fill:#ff0000;fill-opacity:1;fill-rule:nonzero;opacity:1;stroke:none;" d="M250,156.572 C250,152.666,246.834,149.5,242.927,149.5 C242.927,149.5,216.072,149.5,216.072,149.5 C212.166,149.5,209,146.334,209,142.427 C209,142.427,209,115.572,209,115.572 C209,111.666,205.834,108.5,201.927,108.5 C201.927,108.5,175.072,108.5,175.072,108.5 C171.166,108.5,168,111.666,168,115.572 C168,115.572,168,142.427,168,142.427 C168,146.334,164.834,149.5,160.928,149.5 C160.928,149.5,134.072,149.5,134.072,149.5 C130.166,149.5,127,152.666,127,156.572 C127,156.572,127,183.427,127,183.427 C127,187.333,130.166,190.5,134.072,190.5 C134.072,190.5,160.928,190.5,160.928,190.5 C164.834,190.5,168,193.666,168,197.572 C168,197.572,168,224.428,168,224.428 C168,228.334,171.166,231.5,175.072,231.5 C175.072,231.5,201.927,231.5,201.927,231.5 C205.834,231.5,209,228.334,209,224.428 C209,224.428,209,197.572,209,197.572 C209,193.666,212.166,190.5,216.072,190.5 C216.072,190.5,242.927,190.5,242.927,190.5 C246.834,190.5,250,187.333,250,183.427 C250,183.427,250,156.572,250,156.572 z"/>
  </g>
</svg>
