<?xml version="1.0" encoding="utf-8"?>
<svg x="0px" y="0px" width="250px" height="250px" viewBox="0 0 250 250" xmlns="http://www.w3.org/2000/svg" xmlns:xlink="http://www.w3.org/1999/xlink">
  <!--Generated by AMDN-->
  <g id="Home Icon">
    <path id="home" style="fill:#ff0000;fill-opacity:1;fill-rule:evenodd;opacity:1;stroke:none;" d="M18.1,133.082 C21.9108,133.082,25,136.171,25,139.982 C25,139.982,25,238.682,25,238.682 C25,242.492,28.0892,245.582,31.9,245.582 C31.9,245.582,218.1,245.582,218.1,245.582 C221.911,245.582,225,242.492,225,238.682 C225,238.682,225,139.982,225,139.982 C225,136.171,228.089,133.082,231.9,133.082 C231.9,133.082,243.1,133.082,243.1,133.082 C246.911,133.082,250,129.992,250,126.182 C250,126.182,250,123.44,250,123.44 C250,121.61,249.273,119.855,247.979,118.561 C247.979,118.561,140.061,10.6429,140.061,10.6429 C131.743,2.32476,118.257,2.32475,109.939,10.6429 C109.939,10.6429,2.02097,118.561,2.02097,118.561 C0.726953,119.855,5.16988e-23,121.61,5.16988e-23,123.44 C5.16988e-23,123.44,5.16988e-23,126.182,5.16988e-23,126.182 C5.16988e-23,129.992,3.08925,133.082,6.90001,133.082 C6.90001,133.082,18.1,133.082,18.1,133.082 z M162.5,190.894 C162.5,172.772,145.711,158.082,125,158.082 C125,158.082,125,158.082,125,158.082 C104.289,158.082,87.5,172.772,87.5,190.894 C87.5,190.894,87.5,245.582,87.5,245.582 C87.5,245.582,162.5,245.582,162.5,245.582 C162.5,245.582,162.5,190.894,162.5,190.894 z M162.5,238.682 C162.5,242.132,165.95,245.582,169.4,245.582 C165.95,245.582,162.5,245.582,162.5,245.582 C162.5,245.582,162.5,242.132,162.5,238.682 z M87.4999,238.682 C87.4999,242.132,84.0499,245.582,80.5999,245.582 C84.0499,245.582,87.4999,245.582,87.4999,245.582 C87.4999,245.582,87.4999,242.132,87.4999,238.682 z"/>
    <path id="chimney" style="fill:#ff0000;fill-opacity:1;fill-rule:evenodd;opacity:1;stroke:none;" d="M162.5,14.9816 C162.5,11.1708,165.589,8.08156,169.4,8.08156 C169.4,8.08156,193.1,8.08156,193.1,8.08156 C196.911,8.08156,200,11.1708,200,14.9816 C200,14.9816,200,52.9393,200,52.9393 C200,54.8369,197.706,55.7872,196.364,54.4454 C196.364,54.4454,163.73,21.8117,163.73,21.8117 C162.942,21.0241,162.5,19.9558,162.5,18.8419 C162.5,18.8419,162.5,14.9816,162.5,14.9816 z"/>
  </g>
</svg>
