<?xml version="1.0" encoding="utf-8"?>
<svg x="0px" y="0px" width="250px" height="250px" viewBox="0 0 250 250" xmlns="http://www.w3.org/2000/svg" xmlns:xlink="http://www.w3.org/1999/xlink">
  <!--Generated by AMDN-->
  <g id="Art Icon">
    <path id="palette" style="fill:#ff0000;fill-opacity:1;fill-rule:evenodd;opacity:1;stroke:none;" d="M20.9646,191.839 C23.6562,197.304,28.6715,201.369,35.6297,200.787 C43.0474,200.165,47.4715,194.857,55.487,196.136 C62.0685,197.185,67.4656,201.719,66.2643,210.376 C64.932,219.974,53.8087,225.732,57.1044,235.435 C58.1049,238.38,60.2897,240.988,63.5662,242.701 C86.9887,255.464,134.503,251.192,164.542,232.212 C184.103,219.853,199.12,196.09,186.61,172.025 C181.674,162.531,165.208,151.581,157.876,147.035 C156.209,146.002,154.044,146.946,153.626,148.887 C152.133,155.826,147.579,170.217,134.539,179.274 C119.831,189.489,98.9111,191.536,77.5977,187.721 C62.5029,185.019,60.2584,165.592,70.0446,160.042 C73.9198,157.844,77.6652,154.628,81.7111,143.817 C82.5756,141.507,80.9451,139.093,78.5758,139.635 C72.4773,141.032,63.0436,143.318,57.5139,145.288 C41.3234,151.053,9.41356,168.386,20.9646,191.839 z M87.9315,215.666 C96.7342,214.89,104.321,219.071,104.82,224.971 C105.319,230.871,98.5462,236.317,89.7433,237.093 C80.9406,237.869,73.3541,233.688,72.8552,227.788 C72.3562,221.887,79.1286,216.442,87.9315,215.666 z M133.658,205.108 C141.925,202.784,149.904,205.55,151.421,211.265 C152.937,216.979,147.432,223.537,139.166,225.861 C130.899,228.185,122.92,225.418,121.404,219.704 C119.887,213.988,125.392,207.432,133.658,205.108 z M162.445,175.629 C169.96,172.91,177.551,174.979,179.343,180.235 C181.135,185.491,176.468,191.997,168.953,194.716 C161.439,197.435,153.847,195.366,152.055,190.11 C150.263,184.853,154.93,178.349,162.445,175.629 z"/>
    <g id="paintbrush">
      <g id="brush">
        <path style="fill:#ff0000;fill-opacity:1;fill-rule:nonzero;opacity:1;stroke:none;" d="M78.9378,175.303 C76.3041,174.564,75.7107,171.052,77.959,169.472 C88.4557,162.094,95.1571,142.5,101.832,131.005 C107.585,121.097,119.945,116.924,130.513,121.579 C151.54,130.842,144.055,163.536,120.845,173.07 C111.379,176.958,93.6167,179.418,78.9378,175.303 z"/>
      </g>
      <g id="handle">
        <path style="fill:#ff0000;fill-opacity:1;fill-rule:evenodd;opacity:1;stroke:none;" d="M146.935,122.637 C139.916,124.936,133.101,118.537,134.396,110.879 C142.3,64.1381,180.37,47.2495,218.006,2.18513 C223.688,-4.61869,234.073,5.88082,230.915,14.3253 C214.166,59.1052,196.031,106.561,146.935,122.637"/>
      </g>
    </g>
  </g>
</svg>
