<?xml version="1.0" encoding="utf-8"?>
<svg x="0px" y="0px" width="250px" height="250px" viewBox="0 0 250 250" xmlns="http://www.w3.org/2000/svg" xmlns:xlink="http://www.w3.org/1999/xlink">
  <!--Generated by AMDN-->
  <g id="Features Icon">
    <g id="feature 3">
      <path id="f3 star" style="fill:#ff0000;fill-opacity:1;fill-rule:nonzero;opacity:1;stroke:none;" d="M55.2444,173.564 C57.9527,168.131,65.7768,168.131,68.4852,173.564 C68.4852,173.564,75.8598,188.357,75.8598,188.357 C76.9354,190.515,79.0141,192.01,81.4188,192.356 C81.4188,192.356,97.9071,194.728,97.9071,194.728 C103.963,195.599,106.381,202.968,101.999,207.198 C101.999,207.198,90.0691,218.71,90.0691,218.71 C88.3286,220.389,87.5344,222.809,87.9453,225.181 C87.9453,225.181,90.7617,241.437,90.7617,241.437 C91.7963,247.409,85.4663,251.963,80.0498,249.144 C80.0498,249.144,65.3,241.467,65.3,241.467 C63.1493,240.348,60.5802,240.348,58.4296,241.467 C58.4296,241.467,43.6797,249.144,43.6797,249.144 C38.2633,251.963,31.9332,247.409,32.9678,241.437 C32.9678,241.437,35.7842,225.181,35.7842,225.181 C36.1951,222.809,35.4009,220.389,33.6605,218.71 C33.6605,218.71,21.731,207.198,21.731,207.198 C17.3484,202.968,19.7664,195.599,25.8225,194.728 C25.8225,194.728,42.3108,192.356,42.3108,192.356 C44.7154,192.01,46.7942,190.515,47.8697,188.357 C47.8697,188.357,55.2444,173.564,55.2444,173.564 z"/>
      <path id="f3 toggle" style="fill:#ff0000;fill-opacity:1;fill-rule:evenodd;opacity:1;stroke:none;" d="M245.126,210.07 C245.126,189.886,229.333,173.524,209.852,173.524 C209.852,173.524,162.816,173.524,162.816,173.524 C143.335,173.524,127.542,189.886,127.542,210.07 C127.542,210.07,127.542,210.072,127.542,210.072 C127.542,230.255,143.335,246.617,162.816,246.617 C162.816,246.617,209.852,246.617,209.852,246.617 C229.333,246.617,245.126,230.255,245.126,210.072 C245.126,210.072,245.126,210.07,245.126,210.07 z M210.155,180.41 C194.48,180.41,181.773,193.689,181.773,210.071 C181.773,226.452,194.48,239.731,210.155,239.731 C225.83,239.731,238.537,226.452,238.537,210.071 C238.537,193.689,225.83,180.41,210.155,180.41 z"/>
    </g>
    <g id="feature 2">
      <path id="f2 star" style="fill:#ff0000;fill-opacity:1;fill-rule:nonzero;opacity:1;stroke:none;" d="M47.9351,88.8193 C50.6435,83.3865,58.4676,83.3865,61.1759,88.8193 C61.1759,88.8193,68.5506,103.613,68.5506,103.613 C69.6261,105.77,71.7049,107.265,74.1095,107.611 C74.1095,107.611,90.5978,109.983,90.5978,109.983 C96.6539,110.854,99.0719,118.224,94.6894,122.453 C94.6894,122.453,82.7598,133.965,82.7598,133.965 C81.0194,135.644,80.2252,138.064,80.6361,140.436 C80.6361,140.436,83.4525,156.693,83.4525,156.693 C84.4871,162.664,78.157,167.219,72.7406,164.4 C72.7406,164.4,57.9907,156.723,57.9907,156.723 C55.8401,155.603,53.271,155.603,51.1204,156.723 C51.1204,156.723,36.3705,164.4,36.3705,164.4 C30.954,167.219,24.624,162.664,25.6586,156.693 C25.6586,156.693,28.475,140.436,28.475,140.436 C28.8859,138.064,28.0917,135.644,26.3513,133.965 C26.3513,133.965,14.4217,122.453,14.4217,122.453 C10.0392,118.224,12.4572,110.854,18.5132,109.983 C18.5132,109.983,35.0015,107.611,35.0015,107.611 C37.4062,107.265,39.4849,105.77,40.5605,103.613 C40.5605,103.613,47.9351,88.8193,47.9351,88.8193 z"/>
      <path id="f2 toggle" style="fill:#ff0000;fill-opacity:1;fill-rule:evenodd;opacity:1;stroke:none;" d="M120.233,125.325 C120.233,105.142,136.026,88.7797,155.507,88.7797 C155.507,88.7797,202.542,88.7797,202.542,88.7797 C222.024,88.7797,237.816,105.142,237.816,125.325 C237.816,125.325,237.816,125.327,237.816,125.327 C237.816,145.51,222.024,161.872,202.542,161.872 C202.542,161.872,155.507,161.872,155.507,161.872 C136.026,161.872,120.233,145.51,120.233,125.327 C120.233,125.327,120.233,125.325,120.233,125.325 z M155.204,95.6652 C170.879,95.6652,183.586,108.945,183.586,125.326 C183.586,141.707,170.879,154.986,155.204,154.986 C139.529,154.986,126.822,141.707,126.822,125.326 C126.822,108.945,139.529,95.6652,155.204,95.6652 z"/>
    </g>
    <g id="feature 1">
      <path id="f1 star" style="fill:#ff0000;fill-opacity:1;fill-rule:nonzero;opacity:1;stroke:none;" d="M40.6259,4.07462 C43.3343,-1.35821,51.1584,-1.35821,53.8667,4.07462 C53.8667,4.07462,61.2414,18.8679,61.2414,18.8679 C62.3169,21.0253,64.3957,22.5206,66.8003,22.8666 C66.8003,22.8666,83.2886,25.2385,83.2886,25.2385 C89.3447,26.1097,91.7627,33.479,87.3801,37.7082 C87.3801,37.7082,75.4506,49.2203,75.4506,49.2203 C73.7102,50.8998,72.916,53.3198,73.3269,55.6915 C73.3269,55.6915,76.1433,71.948,76.1433,71.948 C77.1778,77.9198,70.8478,82.474,65.4314,79.6549 C65.4314,79.6549,50.6815,71.978,50.6815,71.978 C48.5309,70.8586,45.9617,70.8586,43.8111,71.978 C43.8111,71.978,29.0613,79.6549,29.0613,79.6549 C23.6448,82.474,17.3148,77.9198,18.3494,71.9481 C18.3494,71.9481,21.1657,55.6915,21.1657,55.6915 C21.5766,53.3198,20.7824,50.8998,19.042,49.2203 C19.042,49.2203,7.11249,37.7081,7.11249,37.7081 C2.72995,33.479,5.14793,26.1097,11.204,25.2385 C11.204,25.2385,27.6923,22.8666,27.6923,22.8666 C30.0969,22.5206,32.1757,21.0253,33.2512,18.8679 C33.2512,18.8679,40.6259,4.07462,40.6259,4.07462 z"/>
      <path id="f1 toggle" style="fill:#ff0000;fill-opacity:1;fill-rule:evenodd;opacity:1;stroke:none;" d="M230.507,40.5802 C230.507,20.3968,214.714,4.03501,195.233,4.03501 C195.233,4.03501,148.198,4.03501,148.198,4.03501 C128.717,4.03501,112.924,20.3968,112.924,40.5802 C112.924,40.5802,112.924,40.5822,112.924,40.5822 C112.924,60.7655,128.717,77.1273,148.198,77.1273 C148.198,77.1273,195.233,77.1273,195.233,77.1273 C214.714,77.1273,230.507,60.7655,230.507,40.5822 C230.507,40.5822,230.507,40.5802,230.507,40.5802 z M195.536,10.9205 C179.861,10.9205,167.154,24.2,167.154,40.5812 C167.154,56.9623,179.861,70.2418,195.536,70.2418 C211.211,70.2418,223.918,56.9623,223.918,40.5812 C223.918,24.2,211.211,10.9205,195.536,10.9205 z"/>
    </g>
  </g>
</svg>
